<svg xmlns="http://www.w3.org/2000/svg" viewBox="0 0 300 400" width="300" height="400">
      <defs>
        <linearGradient id="bg3" x1="0%" y1="0%" x2="100%" y2="100%">
          <stop offset="0%" style="stop-color:#020818"/>
          <stop offset="100%" style="stop-color:#05122e"/>
        </linearGradient>
      </defs>
      <rect x="0" y="0" width="300" height="400" fill="#05122e"/>
      <rect x="12" y="12" width="276" height="376" fill="#020818"/>
      <rect x="20" y="20" width="260" height="360" fill="url(#bg3)"/>
      <!-- Geometric shapes -->
      <polygon points="150,50 260,170 210,350 90,350 40,170" fill="none" stroke="#1e90ff" stroke-width="1.5" opacity="0.6"/>
      <polygon points="150,90 230,190 195,330 105,330 70,190" fill="none" stroke="#4db8ff" stroke-width="1" opacity="0.5"/>
      <polygon points="150,130 200,210 180,310 120,310 100,210" fill="none" stroke="#87ceeb" stroke-width="0.8" opacity="0.4"/>
      <circle cx="150" cy="200" r="5" fill="#4db8ff"/>
      <line x1="150" y1="50" x2="150" y2="350" stroke="#1e90ff" stroke-width="0.5" opacity="0.3"/>
      <line x1="40" y1="170" x2="260" y2="170" stroke="#1e90ff" stroke-width="0.5" opacity="0.3"/>
      <rect x="20" y="20" width="260" height="360" fill="none" stroke="#1e90ff" stroke-width="1.5" opacity="0.4"/>
    </svg>