<svg xmlns="http://www.w3.org/2000/svg" viewBox="0 0 300 400" width="300" height="400">
      <defs>
        <linearGradient id="bg1" x1="0%" y1="0%" x2="100%" y2="100%">
          <stop offset="0%" style="stop-color:#0a0a0a"/>
          <stop offset="100%" style="stop-color:#1a1500"/>
        </linearGradient>
        <linearGradient id="art1" x1="0%" y1="100%" x2="100%" y2="0%">
          <stop offset="0%" style="stop-color:#C9930A;stop-opacity:0.9"/>
          <stop offset="50%" style="stop-color:#E8B020"/>
          <stop offset="100%" style="stop-color:#fff5cc;stop-opacity:0.6"/>
        </linearGradient>
      </defs>
      <!-- Frame border -->
      <rect x="0" y="0" width="300" height="400" fill="#2a1f00"/>
      <rect x="12" y="12" width="276" height="376" fill="#1a1400"/>
      <rect x="20" y="20" width="260" height="360" fill="url(#bg1)"/>
      <!-- Art -->
      <path d="M20,380 Q80,200 150,100 Q200,50 280,20 L280,380 Z" fill="url(#art1)" opacity="0.4"/>
      <path d="M20,380 Q120,300 180,200 Q220,150 260,20 L20,20 Z" fill="url(#art1)" opacity="0.25"/>
      <circle cx="150" cy="180" r="60" fill="none" stroke="#C9930A" stroke-width="1" opacity="0.5"/>
      <circle cx="150" cy="180" r="35" fill="none" stroke="#E8B020" stroke-width="0.5" opacity="0.7"/>
      <line x1="20" y1="20" x2="280" y2="380" stroke="#C9930A" stroke-width="0.5" opacity="0.3"/>
      <line x1="280" y1="20" x2="20" y2="380" stroke="#C9930A" stroke-width="0.5" opacity="0.3"/>
      <!-- Inner frame highlight -->
      <rect x="20" y="20" width="260" height="360" fill="none" stroke="#C9930A" stroke-width="1" opacity="0.4"/>
    </svg>