<svg xmlns="http://www.w3.org/2000/svg" viewBox="0 0 300 400" width="300" height="400">
      <rect x="0" y="0" width="300" height="400" fill="#1a1400"/>
      <rect x="12" y="12" width="276" height="376" fill="#100e00"/>
      <rect x="20" y="20" width="260" height="360" fill="#0a0800"/>
      <!-- Map lines golden -->
      <path d="M50,200 L100,180 L130,220 L180,160 L220,200 L260,180" stroke="#C9930A" stroke-width="1.5" fill="none" opacity="0.8"/>
      <path d="M50,240 L90,260 L140,240 L190,270 L240,245 L270,260" stroke="#C9930A" stroke-width="1" fill="none" opacity="0.6"/>
      <path d="M150,50 L160,100 L145,150 L155,200 L148,300 L152,360" stroke="#E8B020" stroke-width="1" fill="none" opacity="0.5"/>
      <path d="M50,200 L80,190 L100,210" stroke="#E8B020" stroke-width="0.8" fill="none" opacity="0.4"/>
      <path d="M200,180 L230,170 L255,185" stroke="#E8B020" stroke-width="0.8" fill="none" opacity="0.4"/>
      <!-- Points of interest -->
      <circle cx="150" cy="180" r="5" fill="#C9930A"/>
      <circle cx="90" cy="220" r="3" fill="#E8B020" opacity="0.7"/>
      <circle cx="220" cy="200" r="3" fill="#E8B020" opacity="0.7"/>
      <circle cx="150" cy="280" r="3" fill="#E8B020" opacity="0.7"/>
      <!-- Grid -->
      <line x1="20" y1="130" x2="280" y2="130" stroke="#C9930A" stroke-width="0.3" opacity="0.3"/>
      <line x1="20" y1="200" x2="280" y2="200" stroke="#C9930A" stroke-width="0.3" opacity="0.3"/>
      <line x1="20" y1="270" x2="280" y2="270" stroke="#C9930A" stroke-width="0.3" opacity="0.3"/>
      <line x1="100" y1="20" x2="100" y2="380" stroke="#C9930A" stroke-width="0.3" opacity="0.3"/>
      <line x1="200" y1="20" x2="200" y2="380" stroke="#C9930A" stroke-width="0.3" opacity="0.3"/>
      <!-- Title -->
      <text x="150" y="355" font-family="serif" font-size="14" fill="#C9930A" text-anchor="middle" opacity="0.8">LISBOA</text>
      <rect x="20" y="20" width="260" height="360" fill="none" stroke="#C9930A" stroke-width="1.5" opacity="0.5"/>
    </svg>