<svg xmlns="http://www.w3.org/2000/svg" viewBox="0 0 800 500" width="800" height="500">
      <defs>
        <linearGradient id="room3wall" x1="0%" y1="0%" x2="100%" y2="100%">
          <stop offset="0%" style="stop-color:#f0ece8"/>
          <stop offset="100%" style="stop-color:#e8e0d8"/>
        </linearGradient>
      </defs>
      <rect width="800" height="500" fill="url(#room3wall)"/>
      <!-- Wall tiles -->
      <g stroke="#d8d0c8" stroke-width="0.8" fill="none">
        <rect x="0" y="0" width="50" height="42"/><rect x="50" y="0" width="50" height="42"/><rect x="100" y="0" width="50" height="42"/><rect x="150" y="0" width="50" height="42"/><rect x="200" y="0" width="50" height="42"/><rect x="250" y="0" width="50" height="42"/><rect x="300" y="0" width="50" height="42"/><rect x="350" y="0" width="50" height="42"/><rect x="400" y="0" width="50" height="42"/><rect x="450" y="0" width="50" height="42"/><rect x="500" y="0" width="50" height="42"/><rect x="550" y="0" width="50" height="42"/><rect x="600" y="0" width="50" height="42"/><rect x="650" y="0" width="50" height="42"/><rect x="700" y="0" width="50" height="42"/><rect x="750" y="0" width="50" height="42"/><rect x="0" y="42" width="50" height="42"/><rect x="50" y="42" width="50" height="42"/><rect x="100" y="42" width="50" height="42"/><rect x="150" y="42" width="50" height="42"/><rect x="200" y="42" width="50" height="42"/><rect x="250" y="42" width="50" height="42"/><rect x="300" y="42" width="50" height="42"/><rect x="350" y="42" width="50" height="42"/><rect x="400" y="42" width="50" height="42"/><rect x="450" y="42" width="50" height="42"/><rect x="500" y="42" width="50" height="42"/><rect x="550" y="42" width="50" height="42"/><rect x="600" y="42" width="50" height="42"/><rect x="650" y="42" width="50" height="42"/><rect x="700" y="42" width="50" height="42"/><rect x="750" y="42" width="50" height="42"/><rect x="0" y="84" width="50" height="42"/><rect x="50" y="84" width="50" height="42"/><rect x="100" y="84" width="50" height="42"/><rect x="150" y="84" width="50" height="42"/><rect x="200" y="84" width="50" height="42"/><rect x="250" y="84" width="50" height="42"/><rect x="300" y="84" width="50" height="42"/><rect x="350" y="84" width="50" height="42"/><rect x="400" y="84" width="50" height="42"/><rect x="450" y="84" width="50" height="42"/><rect x="500" y="84" width="50" height="42"/><rect x="550" y="84" width="50" height="42"/><rect x="600" y="84" width="50" height="42"/><rect x="650" y="84" width="50" height="42"/><rect x="700" y="84" width="50" height="42"/><rect x="750" y="84" width="50" height="42"/><rect x="0" y="126" width="50" height="42"/><rect x="50" y="126" width="50" height="42"/><rect x="100" y="126" width="50" height="42"/><rect x="150" y="126" width="50" height="42"/><rect x="200" y="126" width="50" height="42"/><rect x="250" y="126" width="50" height="42"/><rect x="300" y="126" width="50" height="42"/><rect x="350" y="126" width="50" height="42"/><rect x="400" y="126" width="50" height="42"/><rect x="450" y="126" width="50" height="42"/><rect x="500" y="126" width="50" height="42"/><rect x="550" y="126" width="50" height="42"/><rect x="600" y="126" width="50" height="42"/><rect x="650" y="126" width="50" height="42"/><rect x="700" y="126" width="50" height="42"/><rect x="750" y="126" width="50" height="42"/><rect x="0" y="168" width="50" height="42"/><rect x="50" y="168" width="50" height="42"/><rect x="100" y="168" width="50" height="42"/><rect x="150" y="168" width="50" height="42"/><rect x="200" y="168" width="50" height="42"/><rect x="250" y="168" width="50" height="42"/><rect x="300" y="168" width="50" height="42"/><rect x="350" y="168" width="50" height="42"/><rect x="400" y="168" width="50" height="42"/><rect x="450" y="168" width="50" height="42"/><rect x="500" y="168" width="50" height="42"/><rect x="550" y="168" width="50" height="42"/><rect x="600" y="168" width="50" height="42"/><rect x="650" y="168" width="50" height="42"/><rect x="700" y="168" width="50" height="42"/><rect x="750" y="168" width="50" height="42"/><rect x="0" y="210" width="50" height="42"/><rect x="50" y="210" width="50" height="42"/><rect x="100" y="210" width="50" height="42"/><rect x="150" y="210" width="50" height="42"/><rect x="200" y="210" width="50" height="42"/><rect x="250" y="210" width="50" height="42"/><rect x="300" y="210" width="50" height="42"/><rect x="350" y="210" width="50" height="42"/><rect x="400" y="210" width="50" height="42"/><rect x="450" y="210" width="50" height="42"/><rect x="500" y="210" width="50" height="42"/><rect x="550" y="210" width="50" height="42"/><rect x="600" y="210" width="50" height="42"/><rect x="650" y="210" width="50" height="42"/><rect x="700" y="210" width="50" height="42"/><rect x="750" y="210" width="50" height="42"/><rect x="0" y="252" width="50" height="42"/><rect x="50" y="252" width="50" height="42"/><rect x="100" y="252" width="50" height="42"/><rect x="150" y="252" width="50" height="42"/><rect x="200" y="252" width="50" height="42"/><rect x="250" y="252" width="50" height="42"/><rect x="300" y="252" width="50" height="42"/><rect x="350" y="252" width="50" height="42"/><rect x="400" y="252" width="50" height="42"/><rect x="450" y="252" width="50" height="42"/><rect x="500" y="252" width="50" height="42"/><rect x="550" y="252" width="50" height="42"/><rect x="600" y="252" width="50" height="42"/><rect x="650" y="252" width="50" height="42"/><rect x="700" y="252" width="50" height="42"/><rect x="750" y="252" width="50" height="42"/><rect x="0" y="294" width="50" height="42"/><rect x="50" y="294" width="50" height="42"/><rect x="100" y="294" width="50" height="42"/><rect x="150" y="294" width="50" height="42"/><rect x="200" y="294" width="50" height="42"/><rect x="250" y="294" width="50" height="42"/><rect x="300" y="294" width="50" height="42"/><rect x="350" y="294" width="50" height="42"/><rect x="400" y="294" width="50" height="42"/><rect x="450" y="294" width="50" height="42"/><rect x="500" y="294" width="50" height="42"/><rect x="550" y="294" width="50" height="42"/><rect x="600" y="294" width="50" height="42"/><rect x="650" y="294" width="50" height="42"/><rect x="700" y="294" width="50" height="42"/><rect x="750" y="294" width="50" height="42"/><rect x="0" y="336" width="50" height="42"/><rect x="50" y="336" width="50" height="42"/><rect x="100" y="336" width="50" height="42"/><rect x="150" y="336" width="50" height="42"/><rect x="200" y="336" width="50" height="42"/><rect x="250" y="336" width="50" height="42"/><rect x="300" y="336" width="50" height="42"/><rect x="350" y="336" width="50" height="42"/><rect x="400" y="336" width="50" height="42"/><rect x="450" y="336" width="50" height="42"/><rect x="500" y="336" width="50" height="42"/><rect x="550" y="336" width="50" height="42"/><rect x="600" y="336" width="50" height="42"/><rect x="650" y="336" width="50" height="42"/><rect x="700" y="336" width="50" height="42"/><rect x="750" y="336" width="50" height="42"/><rect x="0" y="378" width="50" height="42"/><rect x="50" y="378" width="50" height="42"/><rect x="100" y="378" width="50" height="42"/><rect x="150" y="378" width="50" height="42"/><rect x="200" y="378" width="50" height="42"/><rect x="250" y="378" width="50" height="42"/><rect x="300" y="378" width="50" height="42"/><rect x="350" y="378" width="50" height="42"/><rect x="400" y="378" width="50" height="42"/><rect x="450" y="378" width="50" height="42"/><rect x="500" y="378" width="50" height="42"/><rect x="550" y="378" width="50" height="42"/><rect x="600" y="378" width="50" height="42"/><rect x="650" y="378" width="50" height="42"/><rect x="700" y="378" width="50" height="42"/><rect x="750" y="378" width="50" height="42"/><rect x="0" y="420" width="50" height="42"/><rect x="50" y="420" width="50" height="42"/><rect x="100" y="420" width="50" height="42"/><rect x="150" y="420" width="50" height="42"/><rect x="200" y="420" width="50" height="42"/><rect x="250" y="420" width="50" height="42"/><rect x="300" y="420" width="50" height="42"/><rect x="350" y="420" width="50" height="42"/><rect x="400" y="420" width="50" height="42"/><rect x="450" y="420" width="50" height="42"/><rect x="500" y="420" width="50" height="42"/><rect x="550" y="420" width="50" height="42"/><rect x="600" y="420" width="50" height="42"/><rect x="650" y="420" width="50" height="42"/><rect x="700" y="420" width="50" height="42"/><rect x="750" y="420" width="50" height="42"/><rect x="0" y="462" width="50" height="42"/><rect x="50" y="462" width="50" height="42"/><rect x="100" y="462" width="50" height="42"/><rect x="150" y="462" width="50" height="42"/><rect x="200" y="462" width="50" height="42"/><rect x="250" y="462" width="50" height="42"/><rect x="300" y="462" width="50" height="42"/><rect x="350" y="462" width="50" height="42"/><rect x="400" y="462" width="50" height="42"/><rect x="450" y="462" width="50" height="42"/><rect x="500" y="462" width="50" height="42"/><rect x="550" y="462" width="50" height="42"/><rect x="600" y="462" width="50" height="42"/><rect x="650" y="462" width="50" height="42"/><rect x="700" y="462" width="50" height="42"/><rect x="750" y="462" width="50" height="42"/>
      </g>
      <!-- Floor tiles dark marble -->
      <rect x="0" y="380" width="800" height="120" fill="#2a2826"/>
      <g stroke="#3a3836" stroke-width="1" fill="none">
        <rect x="0" y="380" width="100" height="40" fill="#2a2826"/><rect x="100" y="380" width="100" height="40" fill="#2a2826"/><rect x="200" y="380" width="100" height="40" fill="#2a2826"/><rect x="300" y="380" width="100" height="40" fill="#2a2826"/><rect x="400" y="380" width="100" height="40" fill="#2a2826"/><rect x="500" y="380" width="100" height="40" fill="#2a2826"/><rect x="600" y="380" width="100" height="40" fill="#2a2826"/><rect x="700" y="380" width="100" height="40" fill="#2a2826"/><rect x="0" y="420" width="100" height="40" fill="#2a2826"/><rect x="100" y="420" width="100" height="40" fill="#2a2826"/><rect x="200" y="420" width="100" height="40" fill="#2a2826"/><rect x="300" y="420" width="100" height="40" fill="#2a2826"/><rect x="400" y="420" width="100" height="40" fill="#2a2826"/><rect x="500" y="420" width="100" height="40" fill="#2a2826"/><rect x="600" y="420" width="100" height="40" fill="#2a2826"/><rect x="700" y="420" width="100" height="40" fill="#2a2826"/><rect x="0" y="460" width="100" height="40" fill="#2a2826"/><rect x="100" y="460" width="100" height="40" fill="#2a2826"/><rect x="200" y="460" width="100" height="40" fill="#2a2826"/><rect x="300" y="460" width="100" height="40" fill="#2a2826"/><rect x="400" y="460" width="100" height="40" fill="#2a2826"/><rect x="500" y="460" width="100" height="40" fill="#2a2826"/><rect x="600" y="460" width="100" height="40" fill="#2a2826"/><rect x="700" y="460" width="100" height="40" fill="#2a2826"/>
      </g>
      <line x1="0" y1="380" x2="800" y2="380" stroke="#1a1816" stroke-width="2"/>
      <!-- Vanity -->
      <rect x="0" y="290" width="280" height="90" rx="3" fill="#f5f0eb"/>
      <rect x="0" y="285" width="280" height="10" fill="#e8e0d8"/>
      <!-- Sink -->
      <ellipse cx="140" cy="305" rx="80" ry="35" fill="#e0d8d0" stroke="#d0c8c0" stroke-width="2"/>
      <ellipse cx="140" cy="305" rx="60" ry="26" fill="#c8c0b8"/>
      <!-- Faucet gold -->
      <rect x="128" y="275" width="24" height="30" rx="4" fill="#C9930A"/>
      <circle cx="140" cy="272" r="8" fill="#E8B020"/>
      <!-- Mirror -->
      <rect x="30" y="80" width="220" height="190" rx="3" fill="#e8f0f0" stroke="#C9930A" stroke-width="3"/>
      <rect x="40" y="90" width="200" height="170" rx="2" fill="#dce8e8" opacity="0.7"/>
      <!-- Towel bar gold -->
      <rect x="600" y="310" width="160" height="6" rx="3" fill="#C9930A"/>
      <rect x="595" y="295" width="10" height="30" rx="3" fill="#C9930A"/>
      <rect x="755" y="295" width="10" height="30" rx="3" fill="#C9930A"/>
      <!-- Towel -->
      <rect x="610" y="290" width="60" height="110" rx="4" fill="#f5f0eb" stroke="#e0d8d0" stroke-width="1"/>
      <!-- Plant -->
      <rect x="720" y="330" width="18" height="50" rx="2" fill="#3d2800"/>
      <ellipse cx="729" cy="325" rx="22" ry="28" fill="#2d6b1f"/>
    </svg>