<svg xmlns="http://www.w3.org/2000/svg" viewBox="0 0 800 500" width="800" height="500">
      <rect width="800" height="420" fill="#b05030"/>
      <!-- Brick pattern -->
      <g fill="#c06040" stroke="#8a3818" stroke-width="1">
        <rect x="-57" y="0" width="108" height="24" rx="1"/><rect x="57" y="0" width="108" height="24" rx="1"/><rect x="171" y="0" width="108" height="24" rx="1"/><rect x="285" y="0" width="108" height="24" rx="1"/><rect x="399" y="0" width="108" height="24" rx="1"/><rect x="513" y="0" width="108" height="24" rx="1"/><rect x="627" y="0" width="108" height="24" rx="1"/><rect x="0" y="28" width="108" height="24" rx="1"/><rect x="114" y="28" width="108" height="24" rx="1"/><rect x="228" y="28" width="108" height="24" rx="1"/><rect x="342" y="28" width="108" height="24" rx="1"/><rect x="456" y="28" width="108" height="24" rx="1"/><rect x="570" y="28" width="108" height="24" rx="1"/><rect x="684" y="28" width="108" height="24" rx="1"/><rect x="-57" y="56" width="108" height="24" rx="1"/><rect x="57" y="56" width="108" height="24" rx="1"/><rect x="171" y="56" width="108" height="24" rx="1"/><rect x="285" y="56" width="108" height="24" rx="1"/><rect x="399" y="56" width="108" height="24" rx="1"/><rect x="513" y="56" width="108" height="24" rx="1"/><rect x="627" y="56" width="108" height="24" rx="1"/><rect x="0" y="84" width="108" height="24" rx="1"/><rect x="114" y="84" width="108" height="24" rx="1"/><rect x="228" y="84" width="108" height="24" rx="1"/><rect x="342" y="84" width="108" height="24" rx="1"/><rect x="456" y="84" width="108" height="24" rx="1"/><rect x="570" y="84" width="108" height="24" rx="1"/><rect x="684" y="84" width="108" height="24" rx="1"/><rect x="-57" y="112" width="108" height="24" rx="1"/><rect x="57" y="112" width="108" height="24" rx="1"/><rect x="171" y="112" width="108" height="24" rx="1"/><rect x="285" y="112" width="108" height="24" rx="1"/><rect x="399" y="112" width="108" height="24" rx="1"/><rect x="513" y="112" width="108" height="24" rx="1"/><rect x="627" y="112" width="108" height="24" rx="1"/><rect x="0" y="140" width="108" height="24" rx="1"/><rect x="114" y="140" width="108" height="24" rx="1"/><rect x="228" y="140" width="108" height="24" rx="1"/><rect x="342" y="140" width="108" height="24" rx="1"/><rect x="456" y="140" width="108" height="24" rx="1"/><rect x="570" y="140" width="108" height="24" rx="1"/><rect x="684" y="140" width="108" height="24" rx="1"/><rect x="-57" y="168" width="108" height="24" rx="1"/><rect x="57" y="168" width="108" height="24" rx="1"/><rect x="171" y="168" width="108" height="24" rx="1"/><rect x="285" y="168" width="108" height="24" rx="1"/><rect x="399" y="168" width="108" height="24" rx="1"/><rect x="513" y="168" width="108" height="24" rx="1"/><rect x="627" y="168" width="108" height="24" rx="1"/><rect x="0" y="196" width="108" height="24" rx="1"/><rect x="114" y="196" width="108" height="24" rx="1"/><rect x="228" y="196" width="108" height="24" rx="1"/><rect x="342" y="196" width="108" height="24" rx="1"/><rect x="456" y="196" width="108" height="24" rx="1"/><rect x="570" y="196" width="108" height="24" rx="1"/><rect x="684" y="196" width="108" height="24" rx="1"/><rect x="-57" y="224" width="108" height="24" rx="1"/><rect x="57" y="224" width="108" height="24" rx="1"/><rect x="171" y="224" width="108" height="24" rx="1"/><rect x="285" y="224" width="108" height="24" rx="1"/><rect x="399" y="224" width="108" height="24" rx="1"/><rect x="513" y="224" width="108" height="24" rx="1"/><rect x="627" y="224" width="108" height="24" rx="1"/><rect x="0" y="252" width="108" height="24" rx="1"/><rect x="114" y="252" width="108" height="24" rx="1"/><rect x="228" y="252" width="108" height="24" rx="1"/><rect x="342" y="252" width="108" height="24" rx="1"/><rect x="456" y="252" width="108" height="24" rx="1"/><rect x="570" y="252" width="108" height="24" rx="1"/><rect x="684" y="252" width="108" height="24" rx="1"/><rect x="-57" y="280" width="108" height="24" rx="1"/><rect x="57" y="280" width="108" height="24" rx="1"/><rect x="171" y="280" width="108" height="24" rx="1"/><rect x="285" y="280" width="108" height="24" rx="1"/><rect x="399" y="280" width="108" height="24" rx="1"/><rect x="513" y="280" width="108" height="24" rx="1"/><rect x="627" y="280" width="108" height="24" rx="1"/><rect x="0" y="308" width="108" height="24" rx="1"/><rect x="114" y="308" width="108" height="24" rx="1"/><rect x="228" y="308" width="108" height="24" rx="1"/><rect x="342" y="308" width="108" height="24" rx="1"/><rect x="456" y="308" width="108" height="24" rx="1"/><rect x="570" y="308" width="108" height="24" rx="1"/><rect x="684" y="308" width="108" height="24" rx="1"/><rect x="-57" y="336" width="108" height="24" rx="1"/><rect x="57" y="336" width="108" height="24" rx="1"/><rect x="171" y="336" width="108" height="24" rx="1"/><rect x="285" y="336" width="108" height="24" rx="1"/><rect x="399" y="336" width="108" height="24" rx="1"/><rect x="513" y="336" width="108" height="24" rx="1"/><rect x="627" y="336" width="108" height="24" rx="1"/><rect x="0" y="364" width="108" height="24" rx="1"/><rect x="114" y="364" width="108" height="24" rx="1"/><rect x="228" y="364" width="108" height="24" rx="1"/><rect x="342" y="364" width="108" height="24" rx="1"/><rect x="456" y="364" width="108" height="24" rx="1"/><rect x="570" y="364" width="108" height="24" rx="1"/><rect x="684" y="364" width="108" height="24" rx="1"/><rect x="-57" y="392" width="108" height="24" rx="1"/><rect x="57" y="392" width="108" height="24" rx="1"/><rect x="171" y="392" width="108" height="24" rx="1"/><rect x="285" y="392" width="108" height="24" rx="1"/><rect x="399" y="392" width="108" height="24" rx="1"/><rect x="513" y="392" width="108" height="24" rx="1"/><rect x="627" y="392" width="108" height="24" rx="1"/>
      </g>
      <!-- Floor -->
      <rect x="0" y="420" width="800" height="80" fill="#3d2800"/>
      <line x1="0" y1="420" x2="800" y2="420" stroke="#2a1800" stroke-width="2"/>
    </svg>